<?xml version="1.0" encoding="iso-8859-1"?>
<!-- Generator: Adobe Illustrator 18.0.0, SVG Export Plug-In . SVG Version: 6.00 Build 0)  -->
<!DOCTYPE svg PUBLIC "-//W3C//DTD SVG 1.1//EN" "http://www.w3.org/Graphics/SVG/1.1/DTD/svg11.dtd">
<svg version="1.1" id="Capa_1" xmlns="http://www.w3.org/2000/svg" xmlns:xlink="http://www.w3.org/1999/xlink" x="0px" y="0px"
	 viewBox="0 0 297.5 297.5" style="enable-background:new 0 0 297.5 297.5;" xml:space="preserve">
<g id="XMLID_24_">
	<g>
		<path style="fill:#96B6C5;" d="M277.9,136.57c0,15.93-10.96,29.34-25.73,33.11c-5.74-28.09-30.64-49.28-60.39-49.28
			c-1.35,0-2.7,0.05-4.05,0.13c-1.73-11.06-6.41-21.17-13.22-29.47c3.09-2.05,6.79-3.26,10.78-3.26c0.81,0,1.64,0.05,2.54,0.17
			c3.9,0.5,7.72-1.41,9.65-4.83c3.47-6.14,10-9.95,17.03-9.95c10.78,0,19.55,8.76,19.55,19.54c0,5.35,4.33,9.68,9.68,9.68
			C262.57,102.41,277.9,117.74,277.9,136.57z"/>
		<path style="fill:#06A3B6;" d="M191.78,139.76c23.31,0,42.28,18.96,42.28,42.27c0,23.32-18.97,42.28-42.28,42.28H48.9
			c-16.15,0-29.29-13.13-29.29-29.29c0-16.15,13.14-29.29,29.29-29.29c5.34,0,9.68-4.33,9.68-9.67c0-12.84,8.21-24.06,20.44-27.93
			c3.3-1.05,5.79-3.77,6.53-7.15c4.21-19.23,21.58-33.18,41.28-33.18c23.32,0,42.28,18.97,42.28,42.28c0,0.31-0.01,0.62-0.02,0.93
			l-0.01,0.42c-0.1,3.04,1.25,5.95,3.63,7.86c2.38,1.9,5.51,2.57,8.46,1.81C184.61,140.21,188.18,139.76,191.78,139.76z"/>
		<path d="M297.25,136.57c0,26.36-19.16,48.31-44.28,52.7c-3.59,30.59-29.66,54.4-61.19,54.4H48.9c-26.82,0-48.65-21.82-48.65-48.65
			c0-23.79,17.17-43.65,39.77-47.83c2.87-15.71,13.28-29.02,28.01-35.56c7.96-25.32,31.88-43.19,58.8-43.19
			c12.11,0,23.41,3.53,32.95,9.58c6.56-5.71,15.04-9.28,24.34-9.56c7.32-9.15,18.49-14.63,30.39-14.63
			c18.36,0,33.79,12.79,37.86,29.92C277.79,87.89,297.25,110,297.25,136.57z M252.17,169.68c14.77-3.77,25.73-17.18,25.73-33.11
			c0-18.83-15.33-34.16-34.16-34.16c-5.35,0-9.68-4.33-9.68-9.68c0-10.78-8.77-19.54-19.55-19.54c-7.03,0-13.56,3.81-17.03,9.95
			c-1.93,3.42-5.75,5.33-9.65,4.83c-0.9-0.12-1.73-0.17-2.54-0.17c-3.99,0-7.69,1.21-10.78,3.26c6.81,8.3,11.49,18.41,13.22,29.47
			c1.35-0.08,2.7-0.13,4.05-0.13C221.53,120.4,246.43,141.59,252.17,169.68z M234.06,182.03c0-23.31-18.97-42.27-42.28-42.27
			c-3.6,0-7.17,0.45-10.61,1.34c-2.95,0.76-6.08,0.09-8.46-1.81c-2.38-1.91-3.73-4.82-3.63-7.86l0.01-0.42
			c0.01-0.31,0.02-0.62,0.02-0.93c0-23.31-18.96-42.28-42.28-42.28c-19.7,0-37.07,13.95-41.28,33.18c-0.74,3.38-3.23,6.1-6.53,7.15
			c-12.23,3.87-20.44,15.09-20.44,27.93c0,5.34-4.34,9.67-9.68,9.67c-16.15,0-29.29,13.14-29.29,29.29
			c0,16.16,13.14,29.29,29.29,29.29h142.88C215.09,224.31,234.06,205.35,234.06,182.03z"/>
	</g>
	<g>
	</g>
</g>
<g>
</g>
<g>
</g>
<g>
</g>
<g>
</g>
<g>
</g>
<g>
</g>
<g>
</g>
<g>
</g>
<g>
</g>
<g>
</g>
<g>
</g>
<g>
</g>
<g>
</g>
<g>
</g>
<g>
</g>
</svg>
