<?xml version="1.0" encoding="iso-8859-1"?>
<!-- Generator: Adobe Illustrator 18.0.0, SVG Export Plug-In . SVG Version: 6.00 Build 0)  -->
<!DOCTYPE svg PUBLIC "-//W3C//DTD SVG 1.1//EN" "http://www.w3.org/Graphics/SVG/1.1/DTD/svg11.dtd">
<svg version="1.1" id="Capa_1" xmlns="http://www.w3.org/2000/svg" xmlns:xlink="http://www.w3.org/1999/xlink" x="0px" y="0px"
	 viewBox="0 0 297.5 297.5" style="enable-background:new 0 0 297.5 297.5;" xml:space="preserve">
<g>
	<g id="XMLID_18_">
		<g>
			<path style="fill:#96B6C5;" d="M233.165,69.11c20.91,0,37.92,17.01,37.92,37.93c0,20.91-17.01,37.92-37.92,37.92H64.335
				c-20.91,0-37.93-17.01-37.93-37.92c0-20.92,17.02-37.93,37.93-37.93c0.97,0,2.02,0.05,3.21,0.15c4.69,0.39,9.04-2.44,10.59-6.87
				c8.7-24.83,32.24-41.52,58.55-41.52c28.99,0,53.83,19.7,60.41,47.9c0.76,3.27,3.06,5.96,6.17,7.22c3.1,1.26,6.62,0.93,9.44-0.88
				C218.815,71.18,225.895,69.11,233.165,69.11z"/>
			<path style="fill:#7AC1A3;" d="M61.815,269.89c-1.54,4.77-3.04,8.5-4.03,9.74c-1.01,0.97-2.18,1.12-2.79,1.12
				c-0.63,0-1.83-0.15-2.86-1.18c-1.56-1.56-1.58-4.08-0.06-5.66C53.305,272.93,57.035,271.43,61.815,269.89z"/>
			<path style="fill:#7AC1A3;" d="M101.785,221.93c-1.54,4.77-3.04,8.49-4.03,9.73c-1.01,0.98-2.18,1.13-2.79,1.13
				c-0.63,0-1.83-0.16-2.86-1.19c-1.03-1.03-1.18-2.23-1.18-2.85s0.14-1.79,1.12-2.8C93.275,224.96,97.015,223.46,101.785,221.93z"
				/>
			<path style="fill:#7AC1A3;" d="M141.755,269.89c-1.54,4.77-3.04,8.5-4.02,9.74c-1.02,0.97-2.19,1.12-2.8,1.12
				c-0.63,0-1.83-0.15-2.86-1.18c-1.56-1.56-1.58-4.08-0.06-5.66C133.245,272.93,136.975,271.43,141.755,269.89z"/>
			<path style="fill:#7AC1A3;" d="M220.575,269.89c-1.54,4.77-3.04,8.5-4.03,9.74c-1.01,0.97-2.18,1.12-2.79,1.12
				c-0.63,0-1.83-0.15-2.86-1.18s-1.19-2.23-1.19-2.86c0-0.61,0.15-1.78,1.13-2.8C212.065,272.93,215.795,271.43,220.575,269.89z"/>
			<path style="fill:#7AC1A3;" d="M181.725,221.93c-1.53,4.77-3.04,8.49-4.02,9.73c-1.02,0.98-2.19,1.13-2.8,1.13
				c-0.63,0-1.83-0.16-2.86-1.19s-1.18-2.23-1.18-2.85s0.14-1.79,1.12-2.8C173.225,224.96,176.955,223.46,181.725,221.93z"/>
			<path style="fill:#7AC1A3;" d="M220.575,173.96c-1.54,4.77-3.04,8.5-4.03,9.74c-1.01,0.97-2.18,1.12-2.79,1.12
				c-0.63,0-1.83-0.15-2.86-1.18s-1.19-2.23-1.19-2.86c0-0.61,0.15-1.78,1.13-2.8C212.065,177,215.795,175.5,220.575,173.96z"/>
			<path style="fill:#7AC1A3;" d="M141.755,173.96c-1.54,4.77-3.04,8.5-4.02,9.74c-1.02,0.97-2.19,1.12-2.8,1.12
				c-0.63,0-1.83-0.15-2.86-1.18s-1.18-2.23-1.18-2.86c0-0.61,0.14-1.78,1.12-2.8C133.245,177,136.975,175.5,141.755,173.96z"/>
			<path style="fill:#7AC1A3;" d="M61.815,173.96c-1.54,4.77-3.04,8.5-4.03,9.74c-1.01,0.97-2.18,1.12-2.79,1.12
				c-0.63,0-1.83-0.15-2.86-1.18c-1.03-1.03-1.18-2.23-1.18-2.86c0-0.61,0.14-1.78,1.12-2.8C53.305,177,57.035,175.5,61.815,173.96z
				"/>
			<path d="M291.715,107.04c0,29.93-22.59,54.67-51.61,58.12c-2.18,9.4-6.41,24.72-11.83,30.15c-3.88,3.87-9.04,6.01-14.52,6.01
				c-5.49,0-10.65-2.14-14.53-6.02c-3.88-3.87-6.01-9.03-6.01-14.52c0-5.48,2.13-10.64,6.01-14.52c0.23-0.23,0.48-0.45,0.74-0.68
				h-38.78c-2.2,9.44-6.39,24.38-11.73,29.73c-3.88,3.87-9.04,6.01-14.52,6.01c-5.49,0-10.65-2.14-14.53-6.01
				c-3.87-3.88-6.01-9.04-6.01-14.53c0-5.48,2.13-10.64,6.01-14.52c0.23-0.23,0.48-0.45,0.74-0.68h-39.9
				c-2.21,9.44-6.39,24.38-11.73,29.73c-3.88,3.87-9.04,6.01-14.52,6.01c-5.49,0-10.65-2.14-14.53-6.01
				c-3.88-3.88-6.01-9.04-6.01-14.53c0-5.48,2.13-10.64,6.01-14.52c1.3-1.3,3.17-2.53,5.39-3.68
				c-23.25-7.76-40.07-29.72-40.07-55.54c0-31.34,24.74-57,55.71-58.49c13.34-29.17,42.67-48.3,75.19-48.3
				c18.77,0,37.15,6.47,51.75,18.21c11.03,8.87,19.61,20.48,24.89,33.49c6.32-2.28,13.02-3.46,19.84-3.46
				C265.445,48.49,291.715,74.75,291.715,107.04z M271.085,107.04c0-20.92-17.01-37.93-37.92-37.93c-7.27,0-14.35,2.07-20.46,6
				c-2.82,1.81-6.34,2.14-9.44,0.88c-3.11-1.26-5.41-3.95-6.17-7.22c-6.58-28.2-31.42-47.9-60.41-47.9
				c-26.31,0-49.85,16.69-58.55,41.52c-1.55,4.43-5.9,7.26-10.59,6.87c-1.19-0.1-2.24-0.15-3.21-0.15
				c-20.91,0-37.93,17.01-37.93,37.93c0,20.91,17.02,37.92,37.93,37.92h168.83C254.075,144.96,271.085,127.95,271.085,107.04z
				 M216.545,183.7c0.99-1.24,2.49-4.97,4.03-9.74c-4.78,1.54-8.51,3.04-9.74,4.02c-0.98,1.02-1.13,2.19-1.13,2.8
				c0,0.63,0.16,1.83,1.19,2.86s2.23,1.18,2.86,1.18C214.365,184.82,215.535,184.67,216.545,183.7z M137.735,183.7
				c0.98-1.24,2.48-4.97,4.02-9.74c-4.78,1.54-8.51,3.04-9.74,4.02c-0.98,1.02-1.12,2.19-1.12,2.8c0,0.63,0.15,1.83,1.18,2.86
				s2.23,1.18,2.86,1.18C135.545,184.82,136.715,184.67,137.735,183.7z M57.785,183.7c0.99-1.24,2.49-4.97,4.03-9.74
				c-4.78,1.54-8.51,3.04-9.74,4.02c-0.98,1.02-1.12,2.19-1.12,2.8c0,0.63,0.15,1.83,1.18,2.86c1.03,1.03,2.23,1.18,2.86,1.18
				C55.605,184.82,56.775,184.67,57.785,183.7z"/>
			<path d="M238.145,252.31c2,2.01,2.84,4.89,2.21,7.65c-2.09,9.26-6.44,25.63-12.08,31.28c-3.88,3.87-9.04,6.01-14.52,6.01
				c-5.49,0-10.65-2.14-14.53-6.02c-3.88-3.87-6.01-9.03-6.01-14.52c0-5.48,2.13-10.64,6.01-14.52c5.65-5.65,22.01-10,31.27-12.09
				C233.255,249.48,236.145,250.31,238.145,252.31z M216.545,279.63c0.99-1.24,2.49-4.97,4.03-9.74c-4.78,1.54-8.51,3.04-9.74,4.02
				c-0.98,1.02-1.13,2.19-1.13,2.8c0,0.63,0.16,1.83,1.19,2.86s2.23,1.18,2.86,1.18C214.365,280.75,215.535,280.6,216.545,279.63z"
				/>
			<path d="M199.295,204.35c2,2,2.84,4.89,2.22,7.65c-2.09,9.26-6.44,25.63-12.09,31.27c-3.88,3.88-9.04,6.01-14.52,6.01
				c-5.49,0-10.65-2.13-14.53-6.01c-3.87-3.88-6.01-9.04-6.01-14.52c0-5.49,2.13-10.65,6.01-14.53c5.65-5.64,22.02-9.99,31.27-12.08
				C194.405,201.51,197.295,202.35,199.295,204.35z M177.705,231.66c0.98-1.24,2.49-4.96,4.02-9.73c-4.77,1.53-8.5,3.03-9.74,4.02
				c-0.98,1.01-1.12,2.18-1.12,2.8s0.15,1.82,1.18,2.85s2.23,1.19,2.86,1.19C175.515,232.79,176.685,232.64,177.705,231.66z"/>
			<path d="M159.325,252.31c2,2.01,2.84,4.89,2.22,7.65c-2.09,9.26-6.44,25.63-12.09,31.28c-3.88,3.87-9.04,6.01-14.52,6.01
				c-5.49,0-10.65-2.14-14.53-6.02c-8-8-8-21.03,0-29.04c5.65-5.65,22.02-10,31.27-12.09
				C154.435,249.48,157.325,250.31,159.325,252.31z M137.735,279.63c0.98-1.24,2.48-4.97,4.02-9.74c-4.78,1.54-8.51,3.04-9.74,4.02
				c-1.52,1.58-1.5,4.1,0.06,5.66c1.03,1.03,2.23,1.18,2.86,1.18C135.545,280.75,136.715,280.6,137.735,279.63z"/>
			<path d="M119.355,204.35c2,2,2.84,4.89,2.22,7.65c-2.09,9.26-6.44,25.63-12.09,31.27c-3.88,3.88-9.04,6.01-14.52,6.01
				c-5.49,0-10.65-2.13-14.53-6.01c-3.88-3.88-6.01-9.04-6.01-14.52c0-5.49,2.13-10.65,6.01-14.53c5.65-5.64,22.02-9.99,31.27-12.08
				C114.465,201.51,117.355,202.35,119.355,204.35z M97.755,231.66c0.99-1.24,2.49-4.96,4.03-9.73c-4.77,1.53-8.51,3.03-9.74,4.02
				c-0.98,1.01-1.12,2.18-1.12,2.8s0.15,1.82,1.18,2.85c1.03,1.03,2.23,1.19,2.86,1.19C95.575,232.79,96.745,232.64,97.755,231.66z"
				/>
			<path d="M79.385,252.31c2,2.01,2.84,4.89,2.22,7.65c-2.09,9.26-6.44,25.63-12.09,31.28c-3.88,3.87-9.04,6.01-14.52,6.01
				c-5.49,0-10.65-2.14-14.53-6.02c-8-8-8.01-21.03,0-29.04c5.65-5.65,22.02-10,31.27-12.09
				C74.495,249.48,77.385,250.31,79.385,252.31z M57.785,279.63c0.99-1.24,2.49-4.97,4.03-9.74c-4.78,1.54-8.51,3.04-9.74,4.02
				c-1.52,1.58-1.5,4.1,0.06,5.66c1.03,1.03,2.23,1.18,2.86,1.18C55.605,280.75,56.775,280.6,57.785,279.63z"/>
		</g>
		<g>
		</g>
	</g>
</g>
<g>
</g>
<g>
</g>
<g>
</g>
<g>
</g>
<g>
</g>
<g>
</g>
<g>
</g>
<g>
</g>
<g>
</g>
<g>
</g>
<g>
</g>
<g>
</g>
<g>
</g>
<g>
</g>
<g>
</g>
</svg>
