<?xml version="1.0" encoding="iso-8859-1"?>
<!-- Generator: Adobe Illustrator 18.0.0, SVG Export Plug-In . SVG Version: 6.00 Build 0)  -->
<!DOCTYPE svg PUBLIC "-//W3C//DTD SVG 1.1//EN" "http://www.w3.org/Graphics/SVG/1.1/DTD/svg11.dtd">
<svg version="1.1" id="Capa_1" xmlns="http://www.w3.org/2000/svg" xmlns:xlink="http://www.w3.org/1999/xlink" x="0px" y="0px"
	 viewBox="0 0 297.5 297.5" style="enable-background:new 0 0 297.5 297.5;" xml:space="preserve">
<g>
	<g id="XMLID_25_">
		<g>
			<path style="fill:#DEC978;" d="M148.75,81.6c37.03,0,67.15,30.12,67.15,67.15s-30.12,67.15-67.15,67.15
				c-37.02,0-67.15-30.12-67.15-67.15S111.73,81.6,148.75,81.6z"/>
			<path d="M287.39,138.88c5.45,0,9.86,4.42,9.86,9.87s-4.41,9.87-9.86,9.87h-52.32c-0.55,4.87-1.5,9.63-2.83,14.23l17.52,7.3
				c5.03,2.09,7.41,7.87,5.31,12.9c-1.57,3.79-5.24,6.08-9.11,6.08c-1.26,0-2.55-0.25-3.79-0.77l-17.55-7.31
				c-2.31,4.13-4.95,8.05-7.88,11.73l37.02,37.02c3.85,3.85,3.85,10.1,0,13.96c-1.93,1.92-4.45,2.89-6.98,2.89s-5.05-0.97-6.98-2.89
				l-37.01-37.02c-3.78,3-7.81,5.7-12.05,8.06l7.24,17.58c2.07,5.04-0.33,10.8-5.37,12.88c-1.23,0.5-2.5,0.74-3.75,0.74
				c-3.88,0-7.56-2.3-9.13-6.11l-7.23-17.55c-4.49,1.27-9.13,2.19-13.88,2.73v52.31c0,5.45-4.42,9.87-9.87,9.87
				s-9.86-4.42-9.86-9.87v-52.31c-4.88-0.55-9.63-1.51-14.23-2.84l-7.31,17.53c-1.57,3.79-5.24,6.07-9.11,6.07
				c-1.26,0-2.55-0.24-3.79-0.76c-5.03-2.09-7.41-7.87-5.31-12.9l7.31-17.55c-4.13-2.31-8.05-4.95-11.73-7.88L57.7,253.76
				c-1.92,1.92-4.45,2.89-6.97,2.89c-2.53,0-5.05-0.97-6.98-2.89c-3.86-3.86-3.86-10.11,0-13.96l37.01-37.02
				c-3-3.77-5.7-7.8-8.05-12.05l-17.58,7.24c-1.23,0.51-2.51,0.75-3.76,0.75c-3.88,0-7.56-2.3-9.12-6.11
				c-2.08-5.04,0.32-10.81,5.36-12.89l17.56-7.22c-1.28-4.49-2.2-9.13-2.74-13.88H10.12c-5.45,0-9.87-4.42-9.87-9.87
				s4.42-9.87,9.87-9.87h52.31c0.55-4.87,1.51-9.63,2.84-14.23l-17.53-7.3c-5.03-2.09-7.41-7.87-5.31-12.9
				c2.09-5.03,7.88-7.41,12.9-5.31l17.55,7.31c2.32-4.13,4.95-8.05,7.88-11.73L43.75,57.7c-3.86-3.85-3.86-10.1,0-13.95
				c3.85-3.86,10.1-3.86,13.95,0l37.02,37.01c3.77-3,7.8-5.7,12.05-8.06l-7.24-17.58c-2.07-5.04,0.33-10.8,5.37-12.88
				c5.04-2.07,10.8,0.33,12.88,5.37l7.23,17.55c4.49-1.27,9.12-2.19,13.88-2.73V10.12c0-5.45,4.41-9.87,9.86-9.87
				s9.87,4.42,9.87,9.87v52.31c4.88,0.55,9.63,1.51,14.23,2.84l7.3-17.53c2.1-5.03,7.88-7.41,12.9-5.31
				c5.03,2.09,7.41,7.87,5.32,12.9l-7.32,17.55c4.13,2.31,8.06,4.95,11.74,7.88l37.01-37.02c3.86-3.85,10.1-3.85,13.96,0
				c3.85,3.86,3.85,10.11,0,13.96l-37.02,37.02c3.01,3.77,5.71,7.8,8.06,12.05l17.58-7.24c5.04-2.08,10.81,0.32,12.88,5.36
				c2.08,5.04-0.33,10.81-5.37,12.89L232.34,125c1.28,4.49,2.2,9.13,2.73,13.88H287.39z M215.9,148.75
				c0-37.03-30.12-67.15-67.15-67.15c-37.02,0-67.15,30.12-67.15,67.15s30.13,67.15,67.15,67.15
				C185.78,215.9,215.9,185.78,215.9,148.75z"/>
			<path d="M281.82,91.63c2.08,5.04-0.32,10.81-5.36,12.88l-0.72,0.3c-1.23,0.51-2.5,0.75-3.75,0.75c-3.88,0-7.56-2.31-9.13-6.12
				c-2.08-5.03,0.32-10.8,5.36-12.88l0.72-0.29C273.98,84.19,279.75,86.59,281.82,91.63z"/>
			<path d="M276.46,192.99c5.04,2.07,7.44,7.84,5.36,12.88c-1.57,3.81-5.25,6.11-9.12,6.11c-1.26,0-2.53-0.24-3.76-0.75l-0.72-0.29
				c-5.04-2.08-7.44-7.85-5.36-12.88c2.08-5.04,7.84-7.44,12.88-5.37L276.46,192.99z"/>
			<path d="M205.87,15.68c5.04,2.08,7.44,7.84,5.37,12.88l-0.3,0.72c-1.57,3.81-5.25,6.11-9.13,6.11c-1.25,0-2.52-0.24-3.75-0.75
				c-5.04-2.07-7.44-7.84-5.37-12.88l0.3-0.72C195.07,16.01,200.84,13.6,205.87,15.68z"/>
			<path d="M211.24,268.94c2.07,5.04-0.33,10.8-5.37,12.88c-1.23,0.51-2.5,0.75-3.75,0.75c-3.88,0-7.56-2.31-9.13-6.11l-0.3-0.72
				c-2.07-5.04,0.33-10.81,5.37-12.88c5.04-2.08,10.8,0.32,12.88,5.36L211.24,268.94z"/>
			<path d="M104.81,21.76c2.08,5.04-0.32,10.81-5.36,12.88c-1.23,0.51-2.51,0.75-3.76,0.75c-3.88,0-7.56-2.3-9.12-6.11l-0.3-0.72
				c-2.08-5.04,0.33-10.8,5.36-12.88c5.04-2.08,10.81,0.32,12.89,5.36L104.81,21.76z"/>
			<path d="M99.45,262.86c5.04,2.07,7.44,7.84,5.36,12.88l-0.29,0.72c-1.57,3.8-5.25,6.11-9.13,6.11c-1.25,0-2.53-0.24-3.76-0.75
				c-5.03-2.08-7.44-7.84-5.36-12.88l0.3-0.72C88.64,263.18,94.41,260.78,99.45,262.86z"/>
			<path d="M29.28,86.56c5.04,2.08,7.44,7.85,5.37,12.88c-1.57,3.81-5.25,6.12-9.13,6.12c-1.25,0-2.53-0.24-3.75-0.75l-0.72-0.3
				c-5.04-2.07-7.44-7.84-5.37-12.88c2.08-5.04,7.85-7.44,12.89-5.36L29.28,86.56z"/>
			<path d="M34.65,198.06c2.07,5.03-0.33,10.8-5.37,12.88l-0.71,0.29c-1.23,0.51-2.51,0.75-3.76,0.75c-3.88,0-7.56-2.3-9.13-6.11
				c-2.07-5.04,0.33-10.81,5.37-12.88l0.72-0.3C26.8,190.61,32.57,193.02,34.65,198.06z"/>
		</g>
		<g>
		</g>
	</g>
</g>
<g>
</g>
<g>
</g>
<g>
</g>
<g>
</g>
<g>
</g>
<g>
</g>
<g>
</g>
<g>
</g>
<g>
</g>
<g>
</g>
<g>
</g>
<g>
</g>
<g>
</g>
<g>
</g>
<g>
</g>
</svg>
